<svg width="114" height="36" viewBox="0 0 114 36" fill="none" xmlns="http://www.w3.org/2000/svg">
<g id="vault">
<path d="M18.2648 11.129H26.3716L17.3369 35.3226H9.03472L0 11.129H8.10683L13.1858 26.4677L18.2648 11.129Z" fill="#3CE973"/>
<path d="M45.8333 11.129H53.1587V35.3226H45.8333V33.0484C44.2217 34.8871 41.8287 36 38.5567 36C32.1591 36 26.8848 30.4355 26.8848 23.2258C26.8848 16.0161 32.1591 10.4516 38.5567 10.4516C41.8287 10.4516 44.2217 11.5645 45.8333 13.4032V11.129ZM40.0217 29.129C43.3915 29.129 45.8333 26.8548 45.8333 23.2258C45.8333 19.5968 43.3915 17.3226 40.0217 17.3226C36.652 17.3226 34.2102 19.5968 34.2102 23.2258C34.2102 26.8548 36.652 29.129 40.0217 29.129Z" fill="#3CE973"/>
<path d="M74.3071 11.129H81.6326V35.3226H74.3071V33.0484C72.9886 34.8387 70.5467 36 67.3235 36C62.3911 36 58.1912 32.5161 58.1912 25.9839V11.129H65.5166V24.9194C65.5166 27.9194 67.4212 29.3226 69.7654 29.3226C72.4514 29.3226 74.3071 27.7742 74.3071 24.3387V11.129Z" fill="#3CE973"/>
<path d="M87.005 35.3226V0H94.3304V35.3226H87.005Z" fill="#3CE973"/>
<path d="M114 18.0968H108.97V26.6613C108.97 28.7419 110.777 28.9355 114 28.7419V35.3226C104.428 36.2903 101.644 33.4355 101.644 26.6613V18.0968H97.7375V11.129H101.644V6.53226L108.97 4.35484V11.129H114V18.0968Z" fill="#3CE973"/>
</g>
</svg>
